<?xml version="1.0" standalone="no"?>
<!DOCTYPE svg PUBLIC "-//W3C//DTD SVG 20010904//EN"
 "http://www.w3.org/TR/2001/REC-SVG-20010904/DTD/svg10.dtd">
<svg version="1.0" xmlns="http://www.w3.org/2000/svg"
 width="660.000000pt" height="660.000000pt" viewBox="0 0 660.000000 660.000000"
 preserveAspectRatio="xMidYMid meet">
<metadata>
Created by potrace 1.14, written by Peter Selinger 2001-2017
</metadata>
<g transform="translate(0.000000,660.000000) scale(0.100000,-0.100000)"
fill="#000000" stroke="none">
<path d="M1355 6313 c-28 -4 -155 -27 -200 -37 -54 -11 -141 -39 -150 -47 -5
-5 -15 -9 -23 -9 -20 0 -186 -85 -255 -132 -213 -142 -395 -352 -498 -574 -38
-83 -82 -217 -95 -289 -4 -22 -8 -49 -10 -60 -26 -141 -23 -352 7 -508 38
-204 144 -435 267 -582 123 -149 225 -242 357 -329 174 -116 329 -173 546
-205 69 -10 312 -8 397 4 l52 8 0 553 0 553 -44 -30 c-151 -102 -340 -85 -462
42 -82 84 -111 147 -117 254 -7 113 28 203 109 287 103 107 260 143 409 96 57
-18 80 -32 123 -75 73 -73 103 -146 127 -308 11 -78 7 -3236 -5 -3310 -40
-260 -165 -378 -390 -371 -72 2 -97 8 -150 34 -304 145 -297 563 12 704 107
49 277 22 371 -60 16 -14 17 12 17 541 l0 555 -67 8 c-84 10 -320 11 -388 2
-383 -52 -733 -280 -969 -633 -79 -118 -163 -310 -181 -415 -3 -19 -10 -51
-15 -70 -5 -19 -12 -69 -16 -110 -42 -450 87 -826 386 -1128 133 -134 226
-202 385 -280 137 -67 288 -112 445 -131 85 -10 352 -8 400 3 14 4 41 9 60 12
89 14 342 103 385 134 6 5 33 20 60 35 293 161 522 462 611 803 42 163 54 264
59 487 2 94 4 178 5 188 0 16 27 17 415 17 388 0 415 -1 416 -17 0 -10 2 -92
4 -183 4 -193 10 -266 31 -370 9 -41 18 -83 20 -94 10 -55 61 -192 99 -271 67
-138 140 -240 250 -351 144 -145 313 -250 515 -322 106 -37 155 -50 285 -71
57 -10 357 -8 400 2 11 3 40 8 65 12 110 17 245 63 370 125 323 160 589 464
698 800 90 273 88 610 -4 888 -37 111 -153 334 -194 372 -3 3 -23 28 -44 55
-63 80 -206 215 -294 278 -176 126 -380 208 -587 235 -67 9 -283 9 -370 0 -38
-4 -73 -7 -77 -8 -5 0 -8 -250 -8 -555 l0 -554 46 31 c56 37 150 68 210 68 56
0 159 -34 201 -66 200 -152 226 -418 56 -587 -82 -83 -177 -118 -302 -113 -98
5 -159 27 -220 82 -52 47 -89 112 -118 209 -17 57 -18 156 -20 1725 -2 1832
-5 1743 58 1877 35 74 109 144 177 168 111 39 251 27 345 -28 159 -95 226
-268 173 -450 -15 -50 -74 -141 -115 -175 -78 -64 -162 -93 -259 -88 -72 4
-123 22 -189 67 l-43 28 0 -554 0 -555 28 -1 c15 0 36 -3 47 -5 11 -3 83 -7
160 -9 124 -3 213 3 295 20 14 2 39 7 55 11 28 6 118 35 208 67 21 8 43 19 49
25 7 7 17 12 23 12 18 0 183 106 245 157 159 131 330 347 406 511 33 72 79
198 88 244 3 13 10 48 16 78 45 227 25 516 -50 735 -91 265 -298 527 -549 695
-141 94 -332 171 -511 206 -97 18 -376 27 -460 14 -157 -25 -287 -64 -420
-127 -427 -201 -685 -552 -764 -1038 -13 -82 -18 -154 -22 -300 -2 -88 -3
-163 -4 -167 0 -5 -187 -8 -415 -8 -388 0 -415 1 -416 18 0 9 -2 85 -4 167 -4
179 -11 248 -40 390 -111 532 -504 920 -1061 1045 -77 18 -134 23 -259 25 -88
0 -173 0 -190 -2z m2385 -3032 l0 -259 -415 0 -415 0 0 259 0 259 415 0 415 0
0 -259z"/>
</g>
</svg>
